<?xml version="1.0" encoding="UTF-8" standalone="no"?>
<!DOCTYPE svg PUBLIC "-//W3C//DTD SVG 1.1//EN" "http://www.w3.org/Graphics/SVG/1.1/DTD/svg11.dtd">
<svg width="100%" height="100%" viewBox="0 0 20 20" version="1.1" xmlns="http://www.w3.org/2000/svg" xmlns:xlink="http://www.w3.org/1999/xlink" xml:space="preserve" xmlns:serif="http://www.serif.com/" style="fill-rule:evenodd;clip-rule:evenodd;stroke-linejoin:round;stroke-miterlimit:2;">
    <g>
        <g transform="matrix(1.11111,0,0,1.11111,-1.11111,-1.11111)">
            <path d="M19,5.5C19,3.016 16.984,1 14.5,1L5.5,1C3.016,1 1,3.016 1,5.5L1,14.5C1,16.984 3.016,19 5.5,19L14.5,19C16.984,19 19,16.984 19,14.5L19,5.5Z" style="fill:rgb(138,31,0);"/>
        </g>
        <g transform="matrix(2.13681,0,0,1.66642,-3.60793,-7.70401)">
            <path d="M2.503,8.884C2.585,8.802 2.708,8.685 2.871,8.533C3.035,8.381 3.163,8.26 3.257,8.172C3.35,8.083 3.464,7.971 3.601,7.834C3.842,7.594 4.03,7.373 4.167,7.173C4.326,6.964 4.405,6.787 4.405,6.641C4.405,6.496 4.357,6.369 4.262,6.26C4.167,6.151 4.025,6.096 3.836,6.096C3.647,6.096 3.487,6.122 3.355,6.175C3.224,6.227 3.124,6.281 3.055,6.338C2.987,6.395 2.919,6.46 2.851,6.532C2.783,6.605 2.742,6.641 2.728,6.641C2.715,6.641 2.698,6.627 2.677,6.597C2.657,6.568 2.646,6.541 2.646,6.519C2.646,6.496 2.658,6.462 2.681,6.416C2.703,6.371 2.748,6.303 2.813,6.212C2.879,6.121 2.971,6.022 3.09,5.915C3.208,5.809 3.36,5.722 3.546,5.656C3.733,5.591 3.945,5.558 4.184,5.558C4.422,5.558 4.619,5.642 4.773,5.81C4.928,5.978 5.005,6.178 5.005,6.41C5.005,6.751 4.778,7.157 4.323,7.63L3.574,8.373C3.564,8.387 3.56,8.4 3.56,8.414C3.56,8.441 3.574,8.455 3.601,8.455L4.507,8.455C4.776,8.455 4.938,8.414 4.995,8.332C5.052,8.25 5.105,8.209 5.155,8.209C5.205,8.209 5.239,8.223 5.257,8.25C5.175,8.6 5.123,8.852 5.1,9.007L4.058,9L2.565,9C2.524,8.986 2.503,8.948 2.503,8.884Z" style="fill:rgb(166,189,255);fill-rule:nonzero;"/>
            <path d="M6.184,8.959C6.107,8.882 6.068,8.789 6.068,8.68C6.068,8.571 6.107,8.477 6.184,8.4C6.262,8.323 6.355,8.284 6.464,8.284C6.573,8.284 6.666,8.323 6.743,8.4C6.821,8.477 6.859,8.571 6.859,8.68C6.859,8.789 6.821,8.882 6.743,8.959C6.666,9.036 6.573,9.075 6.464,9.075C6.355,9.075 6.262,9.036 6.184,8.959Z" style="fill:rgb(166,189,255);fill-rule:nonzero;"/>
            <path d="M7.841,10.438C7.8,10.397 7.779,10.35 7.779,10.295C7.779,10.241 7.793,10.213 7.82,10.213C8.111,10.213 8.393,10.146 8.666,10.012C8.938,9.878 9.165,9.683 9.347,9.426C9.529,9.169 9.62,8.884 9.62,8.571C9.62,7.898 9.072,7.494 7.977,7.357C7.959,7.353 7.95,7.34 7.95,7.32C7.95,7.299 7.976,7.121 8.028,6.785C8.08,6.448 8.145,6.092 8.222,5.714C8.232,5.66 8.252,5.633 8.284,5.633L9.347,5.619C9.62,5.619 9.785,5.578 9.841,5.496C9.898,5.414 9.955,5.374 10.012,5.374C10.069,5.374 10.097,5.405 10.097,5.469C10.097,5.646 10.05,5.81 9.957,5.96C9.864,6.11 9.754,6.185 9.627,6.185L8.509,6.212C8.481,6.212 8.464,6.215 8.458,6.222C8.451,6.229 8.445,6.244 8.441,6.267L8.359,6.805C8.359,6.828 8.409,6.846 8.509,6.86C9.009,6.923 9.421,7.085 9.746,7.344C10.071,7.603 10.233,7.939 10.233,8.352C10.233,8.766 10.122,9.133 9.899,9.453C9.677,9.774 9.385,10.018 9.023,10.186C8.662,10.354 8.268,10.438 7.841,10.438Z" style="fill:rgb(166,189,255);fill-rule:nonzero;"/>
            <path d="M4.485,15.874L6.279,15.874L6.279,15.7C5.734,15.686 5.693,15.637 5.693,14.988L5.693,11.707C5.693,11.058 5.727,11.016 6.279,10.988L6.279,10.821L4.485,10.821L4.485,10.988C5.043,11.016 5.078,11.058 5.078,11.707L5.078,14.988C5.078,15.637 5.036,15.686 4.485,15.7L4.485,15.874ZM6.642,15.874L8.436,15.874L8.436,15.7C7.884,15.686 7.842,15.63 7.842,14.988L7.842,11.707C7.842,11.058 7.884,11.016 8.436,10.988L8.436,10.821L6.642,10.821L6.642,10.988C7.193,11.016 7.228,11.058 7.228,11.707L7.228,14.988C7.228,15.637 7.186,15.686 6.642,15.7L6.642,15.874Z" style="fill:rgb(166,189,255);fill-rule:nonzero;"/>
        </g>
    </g>
</svg>
